<svg xmlns="http://www.w3.org/2000/svg" width="24" height="24" fill="#333" viewBox="0 0 24 24">
  <path d="M1.39 4.22l2.27 2.27c-1.58 1.55-2.64 3.29-3.04 4.31 1.62 3.79 5.2 6.5 9.38 6.97v2.01c-5.17-.47-9.68-3.87-11.48-8.45-.04-.1-.06-.2-.06-.3s.02-.2.06-.3c.84-2.02 2.17-3.9 3.85-5.43l-2.27-2.27 1.41-1.41zm6.41 6.41l1.48 1.48c-.1.19-.17.4-.17.63 0 .83.67 1.5 1.5 1.5.23 0 .44-.07.63-.17l1.48 1.48c-.55.23-1.14.36-1.77.36-2.21 0-4-1.79-4-4 0-.63.13-1.22.36-1.77zm14.88 8.87l-2.06-2.06c1.36-1.3 2.42-2.8 3.09-4.42-.84-2.02-2.17-3.9-3.85-5.43-2.01-1.88-4.65-2.9-7.37-2.9-1.26 0-2.48.21-3.63.6l-1.72-1.72-1.41 1.41 18.38 18.38-1.41 1.41zm-7.49-7.49l-5.19-5.19c.49-.16 1.01-.25 1.56-.25 2.21 0 4 1.79 4 4 0 .55-.09 1.07-.25 1.56z"></path>
</svg>
